<?xml version="1.0" encoding="iso-8859-1"?>
<!-- Generator: Adobe Illustrator 19.0.0, SVG Export Plug-In . SVG Version: 6.00 Build 0)  -->
<svg version="1.1" id="Capa_1" xmlns="http://www.w3.org/2000/svg" xmlns:xlink="http://www.w3.org/1999/xlink" x="0px" y="0px"
	 viewBox="0 0 512.001 512.001" style="enable-background:new 0 0 512.001 512.001;" xml:space="preserve">
<path style="fill:#30AA44;" d="M335.774,123.426c10.406-10.036,31.934-36.822,7.137-68.706c-2.268-2.917-3.574-6.424-3.777-10.145
	c-2.634-48.277-62.057-61.341-87.995-19.212c10.043,16.313,11.372,35.161,4.876,52.1c-1.855,4.835-0.563,10.353,3.215,13.729
	c10.592,9.461,25.751,31.131,8.263,69.953c-1.284,2.85-2.189,5.215-3.203,8.014c17.056,0,31.553-1.155,52.016,9.091
	c11.942-11.759,26.493-30.298,18.223-44.798C332.619,130.097,333.131,125.975,335.774,123.426z"/>
<path style="fill:#269E35;" d="M285.028,162.174c17.488-38.822,2.329-60.491-8.263-69.953c-3.778-3.376-5.07-8.893-3.215-13.729
	c5.799-15.124,5.362-31.771-1.947-46.774c-1.79-3.675-1.29-8.099,1.254-11.299c8.979-11.293,20.713-17.426,32.546-18.986
	c-18.764-4.789-40.934,2.282-54.263,23.931c10.043,16.313,11.372,35.161,4.876,52.1c-1.855,4.835-0.563,10.353,3.215,13.729
	c10.592,9.461,25.751,31.131,8.263,69.953c-1.284,2.85-2.188,5.215-3.203,8.014c6.152,0,11.972-0.148,17.86,0.141
	C283.039,166.881,283.884,164.712,285.028,162.174z"/>
<path style="fill:#3BBC56;" d="M259.916,90.424c-3.461-3.092-4.643-8.153-2.94-12.593c15.912-41.496-17.593-84.71-55.746-76.883
	c-31.489,6.469-36.28,32.665-36.878,43.627c-0.203,3.72-1.509,7.228-3.777,10.145c-24.797,31.883-3.269,58.669,7.138,68.706v-0.001
	c2.643,2.551,3.155,6.673,1.243,10.026c-9.258,16.238,9.778,37.433,23.71,49.902c24.653-16.311,43.619-14.194,72.698-14.194
	C269.271,158.413,291.372,118.523,259.916,90.424z"/>
<g>
	<path style="fill:#30AA44;" d="M189.54,133.451c1.912-3.353,1.4-7.475-1.243-10.026v0.001
		c-10.407-10.037-31.935-36.823-7.138-68.706c2.268-2.917,3.574-6.425,3.777-10.145c0.59-10.811,5.277-36.426,35.614-43.335
		c-6.139-1.464-12.657-1.658-19.319-0.292c-31.489,6.469-36.28,32.665-36.878,43.627c-0.203,3.72-1.509,7.228-3.777,10.145
		c-24.797,31.883-3.269,58.669,7.138,68.706v-0.001c2.643,2.551,3.155,6.673,1.243,10.026c-9.258,16.238,9.778,37.434,23.71,49.902
		c4.505-2.981,8.819-5.34,13.041-7.215C193.561,163.67,181.889,146.87,189.54,133.451z"/>
	<path style="fill:#30AA44;" d="M261.903,169.149c1.14,0.006,2.29,0.01,3.462,0.01c0.008-0.023,0.018-0.048,0.026-0.071
		C264.215,169.1,263.053,169.12,261.903,169.149z"/>
	<path style="fill:#30AA44;" d="M239.851,199.322c-2.777,0-5.459-1.503-6.84-4.131c-32.385-61.636-34.02-135.177-34.074-138.278
		c-0.073-4.262,3.322-7.777,7.584-7.851c4.24-0.078,7.778,3.322,7.851,7.584c0.017,0.897,1.702,73.12,32.305,131.365
		c1.983,3.774,0.531,8.44-3.243,10.423C242.289,199.036,241.06,199.322,239.851,199.322z"/>
</g>
<path style="fill:#269E35;" d="M268.78,199.322c-1.21,0-2.437-0.285-3.583-0.887c-3.774-1.983-5.226-6.649-3.243-10.423
	c30.697-58.423,32.293-130.643,32.305-131.365c0.073-4.217,3.515-7.585,7.715-7.585c0.046,0,0.091,0,0.137,0.001
	c4.262,0.074,7.657,3.589,7.584,7.851c-0.054,3.1-1.689,76.642-34.074,138.278C274.239,197.82,271.556,199.322,268.78,199.322z"/>
<path style="fill:#FFA92C;" d="M278.238,168.644c-14.031,0-24.743,0-38.774,0c-51.513,0-91.26,45.665-83.762,96.63
	c10.524,71.533,35.624,168.999,95.339,243.01c3.999,4.956,11.621,4.956,15.62,0c59.714-74.01,84.814-171.476,95.338-243.01
	C369.499,214.31,329.751,168.644,278.238,168.644z"/>
<path style="fill:#F7991E;" d="M177.276,265.273c-7.498-50.965,32.249-96.63,83.762-96.63c-6.927,0-13.732,0-21.575,0
	c-51.513,0-91.26,45.665-83.762,96.63c10.525,71.533,35.624,168.999,95.339,243.01c3.999,4.956,11.621,4.956,15.62,0
	c1.011-1.252,1.986-2.528,2.977-3.794C212.08,430.966,187.623,335.597,177.276,265.273z"/>
<g>
	<path style="fill:#FCB960;" d="M358.708,226.754H329.05c-4.263,0-7.719,3.455-7.719,7.719c0,4.264,3.456,7.719,7.719,7.719h31.798
		c0.464,0,0.917-0.048,1.359-0.127C361.519,236.807,360.337,231.686,358.708,226.754z"/>
	<path style="fill:#FCB960;" d="M275.794,295.496h-31.798c-4.263,0-7.719-3.455-7.719-7.719c0-4.264,3.456-7.719,7.719-7.719h31.798
		c4.263,0,7.719,3.455,7.719,7.719C283.513,292.041,280.056,295.496,275.794,295.496z"/>
	<path style="fill:#FCB960;" d="M205.887,357.539c4.263,0,7.719-3.455,7.719-7.719c0-4.263-3.456-7.719-7.719-7.719
		c-12.432,0-22.125,0-34.453,0c1.365,5.113,2.81,10.261,4.339,15.438C186.837,357.539,195.309,357.539,205.887,357.539z"/>
	<path style="fill:#FCB960;" d="M294.145,392.492h-31.798c-4.263,0-7.719-3.455-7.719-7.719s3.456-7.719,7.719-7.719h31.798
		c4.263,0,7.719,3.455,7.719,7.719S298.408,392.492,294.145,392.492z"/>
	<path style="fill:#FCB960;" d="M187.002,242.192c4.263,0,7.719-3.455,7.719-7.719c0-4.264-3.456-7.719-7.719-7.719
		c-10.097,0-18.03,0-28.008,0c-1.642,4.972-2.828,10.135-3.513,15.437C167.308,242.192,175.601,242.192,187.002,242.192z"/>
</g>
<g>
</g>
<g>
</g>
<g>
</g>
<g>
</g>
<g>
</g>
<g>
</g>
<g>
</g>
<g>
</g>
<g>
</g>
<g>
</g>
<g>
</g>
<g>
</g>
<g>
</g>
<g>
</g>
<g>
</g>
</svg>
